<?xml version="1.0" encoding="utf-8"?>
<!-- Generator: Adobe Illustrator 17.0.0, SVG Export Plug-In . SVG Version: 6.00 Build 0)  -->
<!DOCTYPE svg PUBLIC "-//W3C//DTD SVG 1.1//EN" "http://www.w3.org/Graphics/SVG/1.1/DTD/svg11.dtd">
<svg version="1.1" id="Layer_1" xmlns="http://www.w3.org/2000/svg" xmlns:xlink="http://www.w3.org/1999/xlink" x="0px" y="0px"
	 width="400px" height="400px" viewBox="0 0 400 400" enable-background="new 0 0 400 400" xml:space="preserve">
<g>
	<path d="M154.445,133.003c3.239-1.333,6.566-2.486,9.704-4.026c6.082-2.985,6.627-7.251,1.593-11.824
		c-1.387-1.26-3.114-2.143-4.526-3.379c-0.758-0.663-1.797-1.885-1.61-2.542c0.279-0.985,1.389-2.055,2.394-2.438
		c1.534-0.585,3.292-0.558,4.932-0.898c1.298-0.269,2.157-0.933,1.729-2.507c-0.162-0.595-0.099-1.257-0.1-1.889
		c-0.004-3.299,1.255-4.655,4.432-5.382c1.01-0.231,1.811-0.302,2.767-0.398c2.109-0.212,3.588-0.319,6.379-0.505
		c2.152-0.122,2.924-0.292,6.257-0.474c0.892-0.076,1.787-0.022,2.931-0.022c1.017-2.374,0.955-2.749,1.798-5.187
		c0.221-0.637,0-1,0.969-3.781c1.476-4.239,1.611-3.769,1.796-5.812c0.372-4.117,0.315-8.271,0.539-12.403
		c0.633-11.7,1.423-23.393,1.94-35.098c0.275-6.226,0.052-12.473,0.189-18.707c0.032-1.453,0.365-3.36,1.683-4.63
		c0.77,0.604,1.898,2.428,1.761,4.358c0.124,3.792,0.268,8.678,0.48,12.631c0.175,3.255,0.029,6.274,0.151,9.419
		c0.574,14.796,1.2,29.591,1.851,44.384c0.039,0.876,0.413,1.753,0.714,2.6c1.31,3.682,2.781,7.314,3.925,11.046
		c0.577,1.884,1.906,1.623,3.125,1.565c1.413-0.067,0.591-0.046,2.266-0.048c2.153,0.029,0.478-0.077,2.153,0.029
		c1.207,0.19,1.354,0.264,2.605,0.343c1.619,0.102,3.615,0.213,5.502,0.505c2.529,0.78,1.249,0.319,4.467,1.296
		c2.049,0.129,2.947,2.931,1.951,5.319c-0.865,2.074-0.656,2.678,1.57,3.398c1.724,0.558,3.589,0.707,5.277,1.343
		c1.074,0.405,2.4,1.176,2.791,2.123c0.609,1.475-1.038,1.979-2.033,2.721c-1.963,1.463-3.839,3.042-5.762,4.56
		c-3.558,2.809-1.57,8.959,2.453,10.26c15.394,4.98,30.821,9.955,45.859,15.888c6.599,2.604,13.448,4.609,19.867,7.69
		c3.757,1.804,4.555,3.776,3.126,7.788c-0.625,1.755-1.024,3.59-1.493,5.273c1.69,1.078,3.39,2.368,5.27,3.288
		c1.221,0.598,2.702,0.677,4.075,0.951c2.952,0.59,5.912,1.141,8.863,1.74c0.751,0.153,1.63,0.24,2.182,0.688
		c0.909,0.739,2.215,1.757,2.201,2.64c-0.013,0.842-1.363,2.081-2.365,2.405c-2.182,0.704-4.508,0.995-6.791,1.352
		c-6.44,1.005-12.884,1.984-19.333,2.923c-3.49,0.508-5.511,2.451-6.235,5.885c-0.46,2.182-1.098,4.326-1.584,6.503
		c-0.504,2.26,0.432,3.993,2.756,4.787c1.782,0.609,3.654,0.964,5.498,1.382c1.258,0.285,2.534,0.456,2.665,2.145
		c0.129,1.665-0.941,2.456-2.241,2.92c-5.209,1.86-10.332,4.146-15.695,5.343c-7.982,1.781-16.131,2.833-24.231,4.05
		c-1.628,0.245-2.658,0.727-2.916,2.386c-0.862,5.536-1.747,11.068-2.562,16.611c-1.908,12.973-3.828,25.944-5.655,38.929
		c-1.553,11.042-2.937,22.108-4.478,33.151c-1.541,11.042-3.176,22.071-4.785,33.104c-2.356,16.162-4.725,32.322-7.092,48.483
		c-0.141,0.963-0.31,1.921-0.481,2.973c-20.8,0-41.561,0-62.501,0c-0.306-2.576-0.602-5.064-0.898-7.552
		c-0.667-5.6-1.256-11.211-2.027-16.797c-0.563-4.076-1.497-8.101-2.034-12.18c-0.885-6.719-1.526-13.47-2.371-20.195
		c-1.248-9.932-2.568-19.855-3.887-29.778c-1.487-11.187-3.012-22.369-4.513-33.554c-1.464-10.913-2.911-21.828-4.381-32.739
		c-0.909-6.741-1.956-13.467-2.703-20.225c-0.211-1.907-0.883-2.479-2.639-2.581c-13.199-0.77-25.887-3.867-38.215-8.544
		c-1.745-0.662-4.019-1.081-3.83-3.516c0.195-2.509,2.598-2.316,4.378-2.75c1.155-0.282,2.325-0.517,3.461-0.863
		c1.196-0.365,2.359-0.838,3.469-1.239c-0.635-3.672-1.022-7.222-1.901-10.646c-1.044-4.066-4.473-5.295-8.176-5.862
		c-7.485-1.147-14.979-2.242-22.467-3.371c-0.62-0.094-1.388-0.098-1.805-0.466c-0.878-0.774-1.961-1.654-2.241-2.686
		c-0.401-1.477,0.953-2.219,2.215-2.581c1.817-0.52,3.689-0.847,5.513-1.347c4.579-1.253,9.149-2.538,13.711-3.852
		c1.457-0.42,1.442-1.417,0.978-2.669c-0.729-1.966-1.446-3.952-1.94-5.985c-0.674-2.774,0.061-3.982,2.764-5.016
		c2.288-0.875,4.63-1.619,6.879-2.582c1.716-0.735,3.318-1.733,4.983-2.59c0.558-0.287,1.131-0.615,1.734-0.733
		c8.856-1.733,16.951-5.743,25.467-8.492c2.798-0.903,5.525-2.027,8.315-2.956L154.445,133.003z M181.197,362.958
		c0-1.511,0.059-2.768-0.011-4.018c-0.222-3.989-0.621-7.973-0.713-11.964c-0.125-5.405-0.063-10.815-0.022-16.223
		c0.122-15.994,0.199-31.989,0.433-47.981c0.308-21.114-1.017-42.236,0.337-63.342c0.099-1.549-0.412-2.223-1.919-2.618
		c-4.902-1.286-9.821-1.46-14.805-0.659c-3.156,0.507-3.611,1.227-3.093,4.357c0.478,2.884,0.765,5.8,1.107,8.705
		c1.074,9.12,2.139,18.241,3.199,27.362c1.206,10.378,2.427,20.753,3.597,31.135c1.068,9.477,2.074,18.962,3.112,28.443
		c1.214,11.082,2.448,22.163,3.642,33.247c0.486,4.509,0.892,9.027,1.336,13.557C178.714,362.958,179.815,362.958,181.197,362.958z
		 M220.325,216.913c0,4.932,0.09,9.541-0.026,14.145c-0.109,4.334,1.53,7.413,5.599,9.201c0.716,0.314,1.544,1.392,1.556,2.129
		c0.116,7.149,0.13,14.302-0.014,21.451c-0.018,0.875-1.009,1.871-1.782,2.544c-0.585,0.509-1.528,0.643-2.335,0.856
		c-2.093,0.553-3.044,1.652-3.02,4.04c0.15,14.955,0.12,29.913,0.178,44.869c0.03,7.721,0.125,15.442,0.182,23.163
		c0.016,2.22,0.003,4.44,0.003,6.66c0.273,0.025,0.545,0.05,0.818,0.075c3.378-21.548,5.636-43.254,8.485-64.875
		c2.853-21.65,5.459-43.332,8.215-65.342C232.207,216.191,226.57,216.533,220.325,216.913z"/>
</g>
</svg>
